<svg xmlns="http://www.w3.org/2000/svg" xmlns:xlink="http://www.w3.org/1999/xlink" width="454pt" height="103pt" viewBox="0 0 454 102.93"><g id="graph0" class="graph" transform="scale(1 1) rotate(0) translate(4 98.9302)"><title>G</title><polygon fill="#fff" stroke="transparent" points="-4 4 -4 -98.93 450 -98.93 450 4 -4 4"/><g id="clust1" class="cluster"><title>cluster_n4f5df71258e84fdc986871c349ffc7c5</title><g id="a_clust1"><a xlink:title="Sequential(layers=[Conv2d(name='conv', n_filters=5), Linear(name='lin', n_filters=3)], name='block1')"><path fill="#555" fill-opacity=".133" stroke="#000" d="M20,-11.9302C20,-11.9302 156,-11.9302 156,-11.9302 162,-11.9302 168,-17.9302 168,-23.9302 168,-23.9302 168,-74.9302 168,-74.9302 168,-80.9302 162,-86.9302 156,-86.9302 156,-86.9302 20,-86.9302 20,-86.9302 14,-86.9302 8,-80.9302 8,-74.9302 8,-74.9302 8,-23.9302 8,-23.9302 8,-17.9302 14,-11.9302 20,-11.9302"/><text x="88" y="-71.73" fill="#000" font-family="Times,serif" font-size="14" text-anchor="middle">block1</text></a></g></g><g id="clust2" class="cluster"><title>cluster_n5c14eef7a6df4c0cb324195ed88be69a</title><g id="a_clust2"><a xlink:title="Sequential(layers=[Conv2d(name='conv1', n_filters=8), Conv2d(name='conv2', n_filters=2), Linear(name='lin', n_filters=1)], name='block2')"><path fill="#555" fill-opacity=".133" stroke="#000" d="M200,-11.9302C200,-11.9302 426,-11.9302 426,-11.9302 432,-11.9302 438,-17.9302 438,-23.9302 438,-23.9302 438,-74.9302 438,-74.9302 438,-80.9302 432,-86.9302 426,-86.9302 426,-86.9302 200,-86.9302 200,-86.9302 194,-86.9302 188,-80.9302 188,-74.9302 188,-74.9302 188,-23.9302 188,-23.9302 188,-17.9302 194,-11.9302 200,-11.9302"/><text x="313" y="-71.73" fill="#000" font-family="Times,serif" font-size="14" text-anchor="middle">block2</text></a></g></g><g id="node1" class="node"><title>neba677b5bbe6408a8d4cd179a828f3ce</title><g id="a_node1"><a xlink:title="Conv2d(name='conv', n_filters=5)"><path fill="pink" stroke="#000" d="M58,-55.9302C58,-55.9302 28,-55.9302 28,-55.9302 22,-55.9302 16,-49.9302 16,-43.9302 16,-43.9302 16,-31.9302 16,-31.9302 16,-25.9302 22,-19.9302 28,-19.9302 28,-19.9302 58,-19.9302 58,-19.9302 64,-19.9302 70,-25.9302 70,-31.9302 70,-31.9302 70,-43.9302 70,-43.9302 70,-49.9302 64,-55.9302 58,-55.9302"/><text x="43" y="-34.23" fill="#000" font-family="Times,serif" font-size="14" text-anchor="middle">conv</text></a></g></g><g id="node2" class="node"><title>n73257360e2a54cad83591b8f5eedc6a0</title><g id="a_node2"><a xlink:title="Linear(name='lin', n_filters=3)"><path fill="#adff2f" stroke="#000" d="M148,-55.9302C148,-55.9302 118,-55.9302 118,-55.9302 112,-55.9302 106,-49.9302 106,-43.9302 106,-43.9302 106,-31.9302 106,-31.9302 106,-25.9302 112,-19.9302 118,-19.9302 118,-19.9302 148,-19.9302 148,-19.9302 154,-19.9302 160,-25.9302 160,-31.9302 160,-31.9302 160,-43.9302 160,-43.9302 160,-49.9302 154,-55.9302 148,-55.9302"/><text x="133" y="-34.23" fill="#000" font-family="Times,serif" font-size="14" text-anchor="middle">lin</text></a></g></g><g id="edge1" class="edge"><title>neba677b5bbe6408a8d4cd179a828f3ce-&gt;n73257360e2a54cad83591b8f5eedc6a0</title><path fill="none" stroke="#000" d="M70.003,-37.9302C78.0277,-37.9302 86.9665,-37.9302 95.5309,-37.9302"/><polygon fill="#000" stroke="#000" points="95.705 -41.43 105.705 -37.93 95.705 -34.43 95.705 -41.43"/></g><g id="node3" class="node"><title>n4f985bb5842f4a28b7e2312e7a94c721</title><g id="a_node3"><a xlink:title="Conv2d(name='conv1', n_filters=8)"><path fill="pink" stroke="#000" d="M238,-55.9302C238,-55.9302 208,-55.9302 208,-55.9302 202,-55.9302 196,-49.9302 196,-43.9302 196,-43.9302 196,-31.9302 196,-31.9302 196,-25.9302 202,-19.9302 208,-19.9302 208,-19.9302 238,-19.9302 238,-19.9302 244,-19.9302 250,-25.9302 250,-31.9302 250,-31.9302 250,-43.9302 250,-43.9302 250,-49.9302 244,-55.9302 238,-55.9302"/><text x="223" y="-34.23" fill="#000" font-family="Times,serif" font-size="14" text-anchor="middle">conv1</text></a></g></g><g id="edge4" class="edge"><title>n73257360e2a54cad83591b8f5eedc6a0-&gt;n4f985bb5842f4a28b7e2312e7a94c721</title><path fill="none" stroke="#000" d="M167.9967,-37.9302C173.7458,-37.9302 179.7244,-37.9302 185.5309,-37.9302"/><polygon fill="#000" stroke="#000" points="178 -41.431 188 -37.93 178 -34.431 178 -41.431"/></g><g id="node5" class="node"><title>nbea2b3b058a54942b0793e6a42fae03e</title><g id="a_node5"><a xlink:title="Linear(name='lin', n_filters=1)"><path fill="#adff2f" stroke="#000" d="M418,-55.9302C418,-55.9302 388,-55.9302 388,-55.9302 382,-55.9302 376,-49.9302 376,-43.9302 376,-43.9302 376,-31.9302 376,-31.9302 376,-25.9302 382,-19.9302 388,-19.9302 388,-19.9302 418,-19.9302 418,-19.9302 424,-19.9302 430,-25.9302 430,-31.9302 430,-31.9302 430,-43.9302 430,-43.9302 430,-49.9302 424,-55.9302 418,-55.9302"/><text x="403" y="-34.23" fill="#000" font-family="Times,serif" font-size="14" text-anchor="middle">lin</text></a></g></g><g id="edge5" class="edge"><title>n73257360e2a54cad83591b8f5eedc6a0-&gt;nbea2b3b058a54942b0793e6a42fae03e</title><path fill="none" stroke="#000" d="M167.9963,-17.8445C174.4609,-14.9839 181.2928,-12.4877 188,-10.9302 253.8046,4.3509 273.8241,2.6529 340,-10.9302 348.8927,-12.7555 358.0801,-15.8907 366.5968,-19.3929"/><polygon fill="#000" stroke="#000" points="365.312 -22.651 375.876 -23.453 368.118 -16.238 365.312 -22.651"/></g><g id="node4" class="node"><title>n9b33f8afb59c4805bb8d33406b64471a</title><g id="a_node4"><a xlink:title="Conv2d(name='conv2', n_filters=2)"><path fill="pink" stroke="#000" d="M328,-55.9302C328,-55.9302 298,-55.9302 298,-55.9302 292,-55.9302 286,-49.9302 286,-43.9302 286,-43.9302 286,-31.9302 286,-31.9302 286,-25.9302 292,-19.9302 298,-19.9302 298,-19.9302 328,-19.9302 328,-19.9302 334,-19.9302 340,-25.9302 340,-31.9302 340,-31.9302 340,-43.9302 340,-43.9302 340,-49.9302 334,-55.9302 328,-55.9302"/><text x="313" y="-34.23" fill="#000" font-family="Times,serif" font-size="14" text-anchor="middle">conv2</text></a></g></g><g id="edge2" class="edge"><title>n4f985bb5842f4a28b7e2312e7a94c721-&gt;n9b33f8afb59c4805bb8d33406b64471a</title><path fill="none" stroke="#000" d="M250.003,-37.9302C258.0277,-37.9302 266.9665,-37.9302 275.5309,-37.9302"/><polygon fill="#000" stroke="#000" points="275.705 -41.43 285.705 -37.93 275.705 -34.43 275.705 -41.43"/></g><g id="edge3" class="edge"><title>n9b33f8afb59c4805bb8d33406b64471a-&gt;nbea2b3b058a54942b0793e6a42fae03e</title><path fill="none" stroke="#000" d="M340.003,-37.9302C348.0277,-37.9302 356.9665,-37.9302 365.5309,-37.9302"/><polygon fill="#000" stroke="#000" points="365.705 -41.43 375.705 -37.93 365.705 -34.43 365.705 -41.43"/></g></g></svg>