<svg xmlns="http://www.w3.org/2000/svg" xmlns:xlink="http://www.w3.org/1999/xlink" width="392" height="137pt" viewBox="0 0 294 137"><g id="graph0" class="graph" transform="scale(1 1) rotate(0) translate(4 133)"><title>G</title><polygon fill="#fff" stroke="transparent" points="-4 4 -4 -133 290 -133 290 4 -4 4"/><g id="clust1" class="cluster"><title>cluster_na66d0353478e446ebc83f841ca204eb2</title><g id="a_clust1"><a xlink:title="cl"><path fill="pink" stroke="#000" d="M22,-46C22,-46 266,-46 266,-46 272,-46 278,-52 278,-58 278,-58 278,-109 278,-109 278,-115 272,-121 266,-121 266,-121 22,-121 22,-121 16,-121 10,-115 10,-109 10,-109 10,-58 10,-58 10,-52 16,-46 22,-46"/><text x="144" y="-105.8" fill="#000" font-family="Times,serif" font-size="14" text-anchor="middle">cl</text></a></g></g><g id="node1" class="node"><title>n79b1f8ca98404bb7b6c233860813a782</title><g id="a_node1"><a xlink:title="I have a tooltip!"><path fill="#88ffaf" fill-opacity=".255" stroke="#000" d="M78,-36C78,-36 12,-36 12,-36 6,-36 0,-30 0,-24 0,-24 0,-12 0,-12 0,-6 6,0 12,0 12,0 78,0 78,0 84,0 90,-6 90,-12 90,-12 90,-24 90,-24 90,-30 84,-36 78,-36"/><text x="45" y="-14.3" fill="#000" font-family="Times,serif" font-size="14" text-anchor="middle">Check tooltip</text></a></g></g><g id="node2" class="node"><title>n14db4780dd4a43dfb64198add839c9bc</title><g id="a_node2"><a xlink:title="a"><path fill="#2686f5" fill-opacity=".157" stroke="#000" d="M60,-90C60,-90 30,-90 30,-90 24,-90 18,-84 18,-78 18,-78 18,-66 18,-66 18,-60 24,-54 30,-54 30,-54 60,-54 60,-54 66,-54 72,-60 72,-66 72,-66 72,-78 72,-78 72,-84 66,-90 60,-90"/><text x="45" y="-68.3" fill="#000" font-family="Times,serif" font-size="14" text-anchor="middle">a</text></a></g></g><g id="node3" class="node"><title>n17c736831e114832820bf073ae1a63de</title><g id="a_node3"><a xlink:title="a"><path fill="#2686f5" fill-opacity=".157" stroke="#000" d="M168,-90C168,-90 138,-90 138,-90 132,-90 126,-84 126,-78 126,-78 126,-66 126,-66 126,-60 132,-54 138,-54 138,-54 168,-54 168,-54 174,-54 180,-60 180,-66 180,-66 180,-78 180,-78 180,-84 174,-90 168,-90"/><text x="153" y="-68.3" fill="#000" font-family="Times,serif" font-size="14" text-anchor="middle">a</text></a></g></g><g id="edge1" class="edge"><title>n14db4780dd4a43dfb64198add839c9bc-&gt;n17c736831e114832820bf073ae1a63de</title><path fill="none" stroke="#000" d="M72.253,-72C85.4273,-72 101.4432,-72 115.7267,-72"/><polygon fill="#000" stroke="#000" points="115.756 -75.5 125.756 -72 115.756 -68.5 115.756 -75.5"/></g><g id="node4" class="node"><title>n34954e259e6442548971df31d2309de5</title><g id="a_node4"><a xlink:title="b"><path fill="#d9da7d" fill-opacity=".161" stroke="#000" d="M258,-90C258,-90 228,-90 228,-90 222,-90 216,-84 216,-78 216,-78 216,-66 216,-66 216,-60 222,-54 228,-54 228,-54 258,-54 258,-54 264,-54 270,-60 270,-66 270,-66 270,-78 270,-78 270,-84 264,-90 258,-90"/><text x="243" y="-68.3" fill="#000" font-family="Times,serif" font-size="14" text-anchor="middle">b</text></a></g></g><g id="edge2" class="edge"><title>n17c736831e114832820bf073ae1a63de-&gt;n34954e259e6442548971df31d2309de5</title><path fill="none" stroke="#000" d="M180.003,-72C188.0277,-72 196.9665,-72 205.5309,-72"/><polygon fill="#000" stroke="#000" points="205.705 -75.5 215.705 -72 205.705 -68.5 205.705 -75.5"/></g></g></svg>